<?xml version="1.0" encoding="UTF-8" standalone="no"?>
<svg
   data-v-0dd9719b=""
   version="1.0"
   width="115300.55"
   height="25741.756"
   viewBox="0 0 115300.55 25741.756"
   preserveAspectRatio="xMidYMid"
   color-interpolation-filters="sRGB"
   id="svg19"
   xmlns="http://www.w3.org/2000/svg"
   xmlns:svg="http://www.w3.org/2000/svg">
  <rect
     data-v-0dd9719b=""
     x="-316.29419"
     y="-19480.875"
     width="100%"
     height="100%"
     fill="url(#watermark)"
     fill-opacity="1"
     class="watermarklayer"
     id="rect2" />
  <g
     data-v-0dd9719b=""
     fill="#070707"
     class="iconlinesvg-g iconlinesvg"
     transform="translate(-224.69378,-19383.341)"
     id="g19">
    <g
       class="tp-name"
       id="g18">
      <g
         id="g1"
         transform="matrix(1.1450083,0,0,1.1450083,-29.197302,-20.377858)"
         style="fill:#ffffff">
        <g
           id="g20"
           transform="matrix(1.6370756,0,0,1.6370756,14.453941,-30.578176)"
           style="fill:#ffffff">
          <g
             transform="translate(-17.508772,21.603523)"
             id="g3"
             style="fill:#ffffff">
            <g
               data-gra="path-name"
               fill="#070707"
               id="g2"
               style="fill:#ffffff" />
          </g>
          <g
             transform="translate(6.4912281,21.603523)"
             id="g5"
             style="fill:#ffffff">
            <g
               data-gra="path-name"
               fill="#070707"
               id="g4"
               style="fill:#ffffff">
              <path
                 d="m 21.24,0.3 v 0 H 5.28 Q 4.44,0.3 3.81,-0.33 3.18,-0.96 3.18,-1.8 v 0 -40.44 q 0,-0.84 0.63,-1.47 0.63,-0.63 1.47,-0.63 v 0 q 0.9,0 1.5,0.63 0.6,0.63 0.6,1.47 v 0 38.28 h 13.86 q 0.84,0 1.47,0.63 0.63,0.63 0.63,1.53 v 0 q 0,0.84 -0.63,1.47 -0.63,0.63 -1.47,0.63 z"
                 transform="translate(-3.18,44.88)"
                 id="path3"
                 style="fill:#ffffff" />
            </g>
          </g>
          <g
             transform="translate(30.491228,21.603523)"
             id="g7"
             style="fill:#ffffff">
            <g
               data-gra="path-name"
               fill="#070707"
               id="g6"
               style="fill:#ffffff">
              <path
                 d="m 13.98,0.84 v 0 q -4.56,0 -7.08,-2.88 v 0 q -2.04,-2.1 -2.58,-5.7 v 0 Q 4.2,-8.76 4.17,-9.54 4.14,-10.32 4.2,-10.62 v 0 -23.52 q 0,-2.76 0.87,-4.8 0.87,-2.04 2.25,-3.36 1.38,-1.32 3.12,-1.95 1.74,-0.63 3.54,-0.63 v 0 q 3.84,0 6.54,2.4 v 0 q 1.14,1.02 2.19,3.03 1.05,2.01 1.05,5.37 v 0 q 0,0.84 -0.63,1.47 -0.63,0.63 -1.47,0.63 v 0 q -0.9,0 -1.53,-0.63 -0.63,-0.63 -0.63,-1.47 v 0 q 0,-2.28 -0.69,-3.6 -0.69,-1.32 -1.59,-1.98 -0.9,-0.66 -1.83,-0.84 -0.93,-0.18 -1.41,-0.18 v 0 q -2.16,0 -3.72,1.38 v 0 q -1.86,1.74 -1.86,5.16 v 0 23.7 0.06 q 0,0.06 0,0.63 0,0.57 0.12,1.41 0.12,0.84 0.45,1.8 0.33,0.96 1.05,1.68 v 0 q 1.32,1.44 3.96,1.44 v 0 q 2.82,0 4.14,-1.5 v 0 q 0.66,-0.72 1.02,-1.62 0.36,-0.9 0.51,-1.68 0.15,-0.78 0.15,-1.32 0,-0.54 0,-0.54 v 0 -0.06 -7.62 h -4.2 q -0.9,0 -1.53,-0.63 -0.63,-0.63 -0.63,-1.53 v 0 q 0,-0.84 0.63,-1.47 0.63,-0.63 1.53,-0.63 v 0 H 24 v 11.76 q 0.06,0.24 0.03,1.02 -0.03,0.78 -0.21,1.8 v 0 q -0.66,3.3 -2.58,5.4 v 0 q -2.7,2.88 -7.26,2.88 z"
                 transform="translate(-4.16,44.88)"
                 id="path5"
                 style="fill:#ffffff" />
            </g>
          </g>
          <g
             transform="matrix(0.38868983,0,0,0.38868983,62.322552,27.112113)"
             id="g9"
             style="overflow:visible;fill:#ffffff">
            <path
               fill="#070707"
               d="m 58.22,-12.54 c 28.35,3.7 50.66,26.01 54.35,54.36 a 4.067,4.067 0 0 0 4.03,3.55 c 0.18,0 0.35,-0.01 0.53,-0.03 a 4.074,4.074 0 0 0 3.53,-4.55 v -0.01 c -4.18,-32 -29.37,-57.19 -61.37,-61.37 a 4.072,4.072 0 0 0 -4.32,3.8 4.076,4.076 0 0 0 3.25,4.25 z m -75.31,57.88 a 4.074,4.074 0 0 0 4.55,-3.52 c 3.69,-28.35 26.01,-50.67 54.36,-54.36 2.23,-0.29 3.8,-2.33 3.51,-4.56 -0.29,-2.23 -2.33,-3.8 -4.56,-3.51 -32,4.18 -57.19,29.37 -61.37,61.37 a 4.07,4.07 0 0 0 3.49,4.58 z m 58.91,67.24 c -28.35,-3.69 -50.67,-26 -54.36,-54.35 a 4.067,4.067 0 0 0 -4.56,-3.51 c -2.23,0.29 -3.8,2.33 -3.51,4.56 4.18,32 29.37,57.19 61.37,61.37 0.18,0.02 0.35,0.03 0.53,0.03 a 4.06,4.06 0 0 0 4.08,-4.06 4.064,4.064 0 0 0 -3.56,-4.05 z m 75.32,-57.87 a 4.067,4.067 0 0 0 -4.56,3.51 c -3.69,28.35 -26.01,50.66 -54.35,54.35 a 4.074,4.074 0 0 0 -3.53,4.55 4.064,4.064 0 0 0 4.05,3.56 c 0.18,0 0.35,-0.01 0.53,-0.03 32,-4.18 57.19,-29.36 61.37,-61.37 a 4.088,4.088 0 0 0 -3.51,-4.57 z"
               id="path7"
               style="fill:#ffffff" />
            <path
               fill="#070707"
               d="m 101.58,50.02 c 0,-28.43 -23.13,-51.56 -51.56,-51.56 -28.43,0 -51.55,23.14 -51.55,51.56 0,28.42 23.13,51.56 51.56,51.56 28.43,0 51.55,-23.13 51.55,-51.56 z M 50.02,93.44 C 26.08,93.44 6.61,73.95 6.61,50.03 6.61,26.11 26.1,6.61 50.02,6.61 c 23.92,0 43.41,19.49 43.41,43.42 0,23.93 -19.47,43.41 -43.41,43.41 z"
               id="path8"
               style="fill:#ffffff" />
            <path
               fill="#070707"
               d="M 50.02,21 C 33.99,21 21,33.99 21,50.02 21,66.05 33.99,79.04 50.02,79.04 66.05,79.04 79.04,66.05 79.04,50.02 79.03,34 66.04,21.02 50.02,21 Z m 0,49.9 c -11.53,0 -20.88,-9.35 -20.88,-20.88 0,-11.53 9.35,-20.88 20.88,-20.88 11.53,0 20.88,9.35 20.88,20.88 -0.01,11.53 -9.35,20.87 -20.88,20.88 z"
               id="path9"
               style="fill:#ffffff" />
          </g>
          <g
             transform="translate(111.49123,21.603523)"
             id="g15"
             style="fill:#ffffff">
            <g
               data-gra="path-name"
               fill="#070707"
               id="g14"
               style="fill:#ffffff">
              <path
                 d="m 7.32,0.3 v 0 q -0.9,0 -1.5,-0.63 -0.6,-0.63 -0.6,-1.47 v 0 -40.44 q 0,-0.84 0.6,-1.47 0.6,-0.63 1.5,-0.63 v 0 q 0.84,0 1.47,0.63 0.63,0.63 0.63,1.47 v 0 40.44 q 0,0.84 -0.63,1.47 Q 8.16,0.3 7.32,0.3 Z"
                 transform="translate(-5.22,44.88)"
                 id="path13"
                 style="fill:#ffffff" />
            </g>
          </g>
          <g
             transform="translate(119.49123,21.603523)"
             id="g17"
             style="fill:#ffffff">
            <g
               data-gra="path-name"
               fill="#070707"
               id="g16"
               style="fill:#ffffff">
              <path
                 d="m 15.18,0.3 v 0 h -4.62 -3.3 q -0.9,0 -1.5,-0.63 -0.6,-0.63 -0.6,-1.47 v 0 -40.44 q 0,-0.84 0.6,-1.47 0.6,-0.63 1.5,-0.63 v 0 h 3.3 4.62 q 1.8,0 3.54,0.63 1.74,0.63 3.12,1.95 1.38,1.32 2.25,3.36 0.87,2.04 0.87,4.8 v 0 23.1 q 0,2.82 -0.87,4.83 -0.87,2.01 -2.25,3.36 -1.38,1.35 -3.12,1.98 Q 16.98,0.3 15.18,0.3 Z M 9.36,-40.14 v 36.18 h 1.2 4.62 q 2.22,0 3.72,-1.38 v 0 q 1.86,-1.74 1.86,-5.16 v 0 -23.1 q 0,-3.3 -1.86,-5.16 v 0 q -1.56,-1.38 -3.72,-1.38 v 0 h -4.62 z"
                 transform="translate(-5.16,44.88)"
                 id="path15"
                 style="fill:#ffffff" />
            </g>
          </g>
        </g>
        <g
           id="g33"
           transform="matrix(1.6370756,0,0,1.6370756,14.453941,-30.578176)"
           style="fill:#ffffff">
          <g
             transform="translate(-17.508772,21.603523)"
             id="g22"
             style="fill:#ffffff" />
          <g
             transform="translate(6.4912281,21.603523)"
             id="g24"
             style="fill:#ffffff">
            <g
               data-gra="path-name"
               fill="#070707"
               id="g23"
               style="fill:#ffffff">
              <path
                 d="m 21.24,0.3 v 0 H 5.28 Q 4.44,0.3 3.81,-0.33 3.18,-0.96 3.18,-1.8 v 0 -40.44 q 0,-0.84 0.63,-1.47 0.63,-0.63 1.47,-0.63 v 0 q 0.9,0 1.5,0.63 0.6,0.63 0.6,1.47 v 0 38.28 h 13.86 q 0.84,0 1.47,0.63 0.63,0.63 0.63,1.53 v 0 q 0,0.84 -0.63,1.47 -0.63,0.63 -1.47,0.63 z"
                 transform="translate(-3.18,44.88)"
                 id="path22"
                 style="fill:#ffffff" />
            </g>
          </g>
          <g
             transform="translate(30.491228,21.603523)"
             id="g26"
             style="fill:#ffffff">
            <g
               data-gra="path-name"
               fill="#070707"
               id="g25"
               style="fill:#ffffff">
              <path
                 d="m 13.98,0.84 v 0 q -4.56,0 -7.08,-2.88 v 0 q -2.04,-2.1 -2.58,-5.7 v 0 Q 4.2,-8.76 4.17,-9.54 4.14,-10.32 4.2,-10.62 v 0 -23.52 q 0,-2.76 0.87,-4.8 0.87,-2.04 2.25,-3.36 1.38,-1.32 3.12,-1.95 1.74,-0.63 3.54,-0.63 v 0 q 3.84,0 6.54,2.4 v 0 q 1.14,1.02 2.19,3.03 1.05,2.01 1.05,5.37 v 0 q 0,0.84 -0.63,1.47 -0.63,0.63 -1.47,0.63 v 0 q -0.9,0 -1.53,-0.63 -0.63,-0.63 -0.63,-1.47 v 0 q 0,-2.28 -0.69,-3.6 -0.69,-1.32 -1.59,-1.98 -0.9,-0.66 -1.83,-0.84 -0.93,-0.18 -1.41,-0.18 v 0 q -2.16,0 -3.72,1.38 v 0 q -1.86,1.74 -1.86,5.16 v 0 23.7 0.06 q 0,0.06 0,0.63 0,0.57 0.12,1.41 0.12,0.84 0.45,1.8 0.33,0.96 1.05,1.68 v 0 q 1.32,1.44 3.96,1.44 v 0 q 2.82,0 4.14,-1.5 v 0 q 0.66,-0.72 1.02,-1.62 0.36,-0.9 0.51,-1.68 0.15,-0.78 0.15,-1.32 0,-0.54 0,-0.54 v 0 -0.06 -7.62 h -4.2 q -0.9,0 -1.53,-0.63 -0.63,-0.63 -0.63,-1.53 v 0 q 0,-0.84 0.63,-1.47 0.63,-0.63 1.53,-0.63 v 0 H 24 v 11.76 q 0.06,0.24 0.03,1.02 -0.03,0.78 -0.21,1.8 v 0 q -0.66,3.3 -2.58,5.4 v 0 q -2.7,2.88 -7.26,2.88 z"
                 transform="translate(-4.16,44.88)"
                 id="path24"
                 style="fill:#ffffff" />
            </g>
          </g>
          <g
             transform="matrix(0.38868983,0,0,0.38868983,62.322552,27.112113)"
             id="g28"
             style="overflow:visible;fill:#ffffff">
            <path
               fill="#070707"
               d="m 58.22,-12.54 c 28.35,3.7 50.66,26.01 54.35,54.36 a 4.067,4.067 0 0 0 4.03,3.55 c 0.18,0 0.35,-0.01 0.53,-0.03 a 4.074,4.074 0 0 0 3.53,-4.55 v -0.01 c -4.18,-32 -29.37,-57.19 -61.37,-61.37 a 4.072,4.072 0 0 0 -4.32,3.8 4.076,4.076 0 0 0 3.25,4.25 z m -75.31,57.88 a 4.074,4.074 0 0 0 4.55,-3.52 c 3.69,-28.35 26.01,-50.67 54.36,-54.36 2.23,-0.29 3.8,-2.33 3.51,-4.56 -0.29,-2.23 -2.33,-3.8 -4.56,-3.51 -32,4.18 -57.19,29.37 -61.37,61.37 a 4.07,4.07 0 0 0 3.49,4.58 z m 58.91,67.24 c -28.35,-3.69 -50.67,-26 -54.36,-54.35 a 4.067,4.067 0 0 0 -4.56,-3.51 c -2.23,0.29 -3.8,2.33 -3.51,4.56 4.18,32 29.37,57.19 61.37,61.37 0.18,0.02 0.35,0.03 0.53,0.03 a 4.06,4.06 0 0 0 4.08,-4.06 4.064,4.064 0 0 0 -3.56,-4.05 z m 75.32,-57.87 a 4.067,4.067 0 0 0 -4.56,3.51 c -3.69,28.35 -26.01,50.66 -54.35,54.35 a 4.074,4.074 0 0 0 -3.53,4.55 4.064,4.064 0 0 0 4.05,3.56 c 0.18,0 0.35,-0.01 0.53,-0.03 32,-4.18 57.19,-29.36 61.37,-61.37 a 4.088,4.088 0 0 0 -3.51,-4.57 z"
               id="path26"
               style="fill:#ffffff" />
            <path
               fill="#070707"
               d="m 101.58,50.02 c 0,-28.43 -23.13,-51.56 -51.56,-51.56 -28.43,0 -51.55,23.14 -51.55,51.56 0,28.42 23.13,51.56 51.56,51.56 28.43,0 51.55,-23.13 51.55,-51.56 z M 50.02,93.44 C 26.08,93.44 6.61,73.95 6.61,50.03 6.61,26.11 26.1,6.61 50.02,6.61 c 23.92,0 43.41,19.49 43.41,43.42 0,23.93 -19.47,43.41 -43.41,43.41 z"
               id="path27"
               style="fill:#ffffff" />
            <path
               fill="#070707"
               d="M 50.02,21 C 33.99,21 21,33.99 21,50.02 21,66.05 33.99,79.04 50.02,79.04 66.05,79.04 79.04,66.05 79.04,50.02 79.03,34 66.04,21.02 50.02,21 Z m 0,49.9 c -11.53,0 -20.88,-9.35 -20.88,-20.88 0,-11.53 9.35,-20.88 20.88,-20.88 11.53,0 20.88,9.35 20.88,20.88 -0.01,11.53 -9.35,20.87 -20.88,20.88 z"
               id="path28"
               style="fill:#ffffff" />
          </g>
          <g
             transform="translate(111.49123,21.603523)"
             id="g30"
             style="fill:#ffffff">
            <g
               data-gra="path-name"
               fill="#070707"
               id="g29"
               style="fill:#ffffff">
              <path
                 d="m 7.32,0.3 v 0 q -0.9,0 -1.5,-0.63 -0.6,-0.63 -0.6,-1.47 v 0 -40.44 q 0,-0.84 0.6,-1.47 0.6,-0.63 1.5,-0.63 v 0 q 0.84,0 1.47,0.63 0.63,0.63 0.63,1.47 v 0 40.44 q 0,0.84 -0.63,1.47 Q 8.16,0.3 7.32,0.3 Z"
                 transform="translate(-5.22,44.88)"
                 id="path29"
                 style="fill:#ffffff" />
            </g>
          </g>
          <g
             transform="translate(119.49123,21.603523)"
             id="g32"
             style="fill:#ffffff">
            <g
               data-gra="path-name"
               fill="#070707"
               id="g31"
               style="fill:#ffffff">
              <path
                 d="m 15.18,0.3 v 0 h -4.62 -3.3 q -0.9,0 -1.5,-0.63 -0.6,-0.63 -0.6,-1.47 v 0 -40.44 q 0,-0.84 0.6,-1.47 0.6,-0.63 1.5,-0.63 v 0 h 3.3 4.62 q 1.8,0 3.54,0.63 1.74,0.63 3.12,1.95 1.38,1.32 2.25,3.36 0.87,2.04 0.87,4.8 v 0 23.1 q 0,2.82 -0.87,4.83 -0.87,2.01 -2.25,3.36 -1.38,1.35 -3.12,1.98 Q 16.98,0.3 15.18,0.3 Z M 9.36,-40.14 v 36.18 h 1.2 4.62 q 2.22,0 3.72,-1.38 v 0 q 1.86,-1.74 1.86,-5.16 v 0 -23.1 q 0,-3.3 -1.86,-5.16 v 0 q -1.56,-1.38 -3.72,-1.38 v 0 h -4.62 z"
                 transform="translate(-5.16,44.88)"
                 id="path30"
                 style="fill:#ffffff" />
            </g>
          </g>
        </g>
        <path
           fill="currentColor"
           d="M -10.900083,7.8868531 H 0.44220684 L 5.4139166,25.557902 H 17.114416 L 9.1226261,38.89343 20.313603,78.997804 H 8.7119191 L 1.1771545,52.098565 -15.025676,79.003731 h -12.94806 L -2.9391725,37.364289 -6.9659489,22.908577 -40.72725,79.009659 h -12.960412 z"
           id="path1"
           style="fill:#ffffff;stroke-width:3.0251" />
      </g>
    </g>
    <!---->
  </g>
  <defs
     v-gra="od"
     id="defs19" />
</svg>
